<?xml version="1.0" encoding="UTF-8" standalone="no"?>
<!-- Created with Inkscape (http://www.inkscape.org/) -->

<svg
   width="2000mm"
   height="2000mm"
   viewBox="0 0 2000 2000"
   version="1.1"
   id="svg1"
   xml:space="preserve"
   inkscape:export-filename="logo.png"
   inkscape:export-xdpi="25.4"
   inkscape:export-ydpi="25.4"
   xmlns:inkscape="http://www.inkscape.org/namespaces/inkscape"
   xmlns:sodipodi="http://sodipodi.sourceforge.net/DTD/sodipodi-0.dtd"
   xmlns:xlink="http://www.w3.org/1999/xlink"
   xmlns="http://www.w3.org/2000/svg"
   xmlns:svg="http://www.w3.org/2000/svg"><sodipodi:namedview
     id="namedview1"
     pagecolor="#505050"
     bordercolor="#eeeeee"
     borderopacity="1"
     inkscape:showpageshadow="0"
     inkscape:pageopacity="0"
     inkscape:pagecheckerboard="0"
     inkscape:deskcolor="#505050"
     inkscape:document-units="mm"><inkscape:page
       x="0"
       y="0"
       width="2000"
       height="2000"
       id="page2"
       margin="0"
       bleed="0" /></sodipodi:namedview><defs
     id="defs1"><linearGradient
       id="linearGradient1"
       inkscape:collect="always"><stop
         style="stop-color:#60a5fa;stop-opacity:1;"
         offset="0"
         id="stop1" /><stop
         style="stop-color:#2dd4bf;stop-opacity:1;"
         offset="1"
         id="stop2" /></linearGradient><linearGradient
       inkscape:collect="always"
       xlink:href="#linearGradient1"
       id="linearGradient2"
       x1="-83.554375"
       y1="340.90186"
       x2="310.82227"
       y2="-46.790447"
       gradientUnits="userSpaceOnUse"
       gradientTransform="matrix(4.3098358,0,0,4.3098358,527.56055,332.27929)" /></defs><g
     inkscape:label="Livello 1"
     inkscape:groupmode="layer"
     id="layer1"><path
       style="fill:url(#linearGradient2);fill-opacity:1;stroke-width:4.30983"
       d="m 995.20224,1885.6562 c -4.58821,-2.4239 -19.95963,-18.6026 -27.05948,-28.4807 -9.43776,-13.1312 -25.43549,-41.8179 -31.47757,-56.4455 -7.44098,-18.0139 -17.67736,-49.2028 -17.67736,-53.8604 0,-1.0082 1.54826,-0.7767 5.41647,0.8089 45.17535,18.5172 50.33803,20.4734 66.38336,25.1539 5.64215,1.646 10.08604,2.2679 13.17874,1.8438 6.6522,-0.912 22.5835,-6.4096 50.1484,-17.3057 28.7806,-11.3772 29.0776,-11.4719 29.0776,-9.2994 0,4.9421 -8.8736,31.336 -17.6997,52.6463 -5.0313,12.1482 -16.7566,34.9442 -23.0658,44.8426 -7.7572,12.1706 -30.7911,37.5684 -37.0038,40.8013 -3.9517,2.0566 -5.1494,1.9739 -10.22086,-0.7051 z m 431.35956,-136.2895 c -24.1757,-5.2452 -47.5022,-32.6022 -68.5057,-80.3427 -13.9416,-31.689 -26.207,-53.686 -41.4668,-74.3662 l -2.285,-3.0971 23.5968,-23.5093 c 31.4497,-31.3338 51.8641,-55.0905 78.3438,-91.1698 13.663,-18.6168 38.0532,-54.6021 39.4173,-58.157 1.3098,-3.4133 3.8887,-1.5015 12.77,9.4653 21.8181,26.9413 35.6933,52.4757 44.0298,81.0288 6.7271,23.0413 8.7264,38.0266 8.6937,65.1596 -0.043,33.6847 -3.2521,53.3014 -13.8768,84.7684 -9.305,27.5593 -20.9476,51.331 -32.019,65.3772 -11.4147,14.481 -19.5051,20.9919 -30.1848,24.2903 -8.6007,2.6565 -8.7886,2.6622 -18.5133,0.5525 z m -870.95807,-1.5856 c -7.97876,-2.8726 -14.95453,-7.8568 -22.01917,-15.7344 -16.26834,-18.1392 -31.33035,-47.5211 -42.12102,-82.1661 -4.80891,-15.4401 -6.38878,-23.3279 -9.17417,-45.8062 -6.17518,-49.8348 -0.24265,-86.1718 21.13771,-129.4731 9.12185,-18.4746 23.72479,-40.3534 34.47149,-51.6474 l 6.51984,-6.8518 13.04518,19.5568 c 34.48968,51.706 62.44642,86.0777 105.07548,129.1868 13.73114,13.8859 24.96567,25.56 24.96567,25.9427 0,0.3836 -3.46368,5.6196 -7.69706,11.6375 -4.23343,6.0177 -8.94119,12.817 -10.46175,15.1085 -4.1405,6.2407 -17.29493,32.2665 -22.85489,45.2179 -17.56818,40.9244 -34.92422,66.943 -52.16133,78.1956 -13.93913,9.0992 -26.34862,11.2891 -38.72598,6.8332 z m 433.51319,-8.5374 c -14.39343,-4.7947 -48.59909,-18.9223 -69.35466,-28.6458 -77.72573,-36.4112 -142.18225,-79.3595 -202.60942,-135.0016 -6.58531,-6.0636 -14.36805,-13.2063 -17.29498,-15.8719 -9.11433,-8.3012 -48.02209,-50.2134 -60.49666,-65.1677 -20.48619,-24.5588 -52.16728,-68.8785 -66.43288,-92.9356 -2.9753,-5.0171 -8.6211,-14.5104 -12.54624,-21.0953 -8.87568,-14.8909 -23.47387,-41.9128 -27.82689,-51.5086 -1.80073,-3.9698 -5.85085,-12.6054 -9.00018,-19.1909 -7.47265,-15.6253 -19.17925,-42.9324 -22.73163,-53.0243 -7.60953,-21.6181 -18.65668,-54.9306 -21.93284,-66.1383 -2.01669,-6.8988 -4.37995,-14.8526 -5.25175,-17.6747 -5.03035,-16.2847 -6.36915,-21.1854 -9.03467,-33.0689 -17.243,-76.8762 -24.14805,-124.3073 -31.04318,-213.23822 -2.45627,-31.68001 -2.79058,-115.33669 -0.60152,-150.52102 3.45174,-55.47969 5.4266,-80.07891 9.37773,-116.81081 1.21852,-11.32814 2.77919,-25.98461 3.46812,-32.56991 1.35264,-12.92938 5.42044,-38.6085 6.35563,-40.12168 0.31591,-0.51123 1.78595,-0.9295 3.26663,-0.9295 1.48074,0 12.09811,-2.10971 23.59417,-4.68824 11.49609,-2.57853 27.82933,-6.18035 36.29613,-8.00406 19.7956,-4.26384 51.08376,-11.93717 59.86634,-14.68201 3.763,-1.17607 11.71668,-3.47016 17.67481,-5.09793 21.83514,-5.96546 81.91679,-24.47859 87.23374,-26.87959 1.25435,-0.5664 7.92519,-2.89134 14.82407,-5.1665 16.56663,-5.46345 53.03564,-19.80185 85.52327,-33.62483 42.05472,-17.89365 73.64514,-33.18711 114.03109,-55.20433 3.13585,-1.70959 10.57639,-5.71174 16.53447,-8.89366 5.95815,-3.18191 12.978,-7.23453 15.59967,-9.00582 2.62167,-1.7713 4.99355,-3.22057 5.27081,-3.22057 0.83106,0 19.78465,-11.59992 35.00478,-21.42363 7.83963,-5.06002 18.7193,-12.08255 24.17711,-15.60562 l 9.92341,-6.40562 16.8738,11.02899 c 9.2809,6.06592 21.7492,14.23974 27.7071,18.16398 5.958,3.92423 12.5283,7.9919 14.6008,9.03919 2.0723,1.04734 8.743,4.88365 14.8237,8.52516 6.0812,3.64151 14.9052,8.5773 19.6089,10.9684 4.7039,2.39114 9.8351,5.21602 11.403,6.27753 7.5965,5.14276 80.9888,41.13256 104.9088,51.44467 7.2125,3.10932 15.9997,6.90801 19.5279,8.44149 3.5276,1.53349 6.9982,2.78817 7.7124,2.78817 0.714,0 2.1894,0.51584 3.2785,1.14628 8.3171,4.81509 108.3979,41.0452 113.3818,41.0452 0.6292,0 2.7613,0.70436 4.7373,1.56525 1.9765,0.86093 12.0603,4.00853 22.4086,6.99473 10.3484,2.9862 21.1243,6.0957 23.9464,6.91004 28.5125,8.22709 59.5696,16.12198 82.6725,21.01601 19.8757,4.21036 60.2679,13.70917 60.8743,14.31543 3.3065,3.30646 15.3878,116.68259 19.0711,178.97114 2.3285,39.38333 2.6896,130.62195 0.6296,159.07333 -4.5361,62.63812 -14.0431,136.61626 -22.3482,173.89756 -7.3689,33.0792 -12.8899,56.4933 -14.9232,63.287 -0.8447,2.8224 -2.648,8.9799 -4.0074,13.6837 -8.4886,29.3762 -15.496,51.3835 -17.7151,55.6373 -0.8865,1.699 -1.6144,3.6384 -1.6183,4.3099 0,2.2729 -9.1752,26.0297 -19.0991,49.5226 -11.2693,26.6778 -33.2371,71.3092 -44.4615,90.332 -14.8646,25.1927 -20.8731,34.8744 -30.9585,49.8851 -6.516,9.6984 -14.215,20.8143 -17.1087,24.7018 -2.8936,3.8879 -7.8271,10.5578 -10.9629,14.8228 -33.4628,45.5115 -87.628,102.103 -133.4161,139.3934 -23.2175,18.9086 -65.8712,49.3843 -83.4385,59.6162 -1.7739,1.0335 -9.8962,5.8282 -18.0491,10.6553 -14.1475,8.3757 -18.5655,10.7949 -42.2563,23.1373 -15.5883,8.121 -61.3522,28.7566 -63.7747,28.7566 -0.2888,0 -3.2298,1.2222 -6.5412,2.7156 -11.2158,5.0597 -32.9447,12.1085 -37.1688,12.0575 -2.31062,-0.043 -7.79316,-1.2472 -12.18338,-2.7095 z m 20.10268,-102.5698 c 3.3686,-1.4861 11.256,-4.8744 17.5278,-7.5301 104.7,-44.3302 206.569,-124.1767 276.4534,-216.6895 9.5963,-12.7036 27.0085,-37.6632 31.211,-44.74 1.1335,-1.9092 5.9596,-9.6247 10.7242,-17.1458 15.8357,-24.9954 37.0254,-65.7672 50.2134,-96.6175 9.1313,-21.3595 25.4919,-66.6891 31.6907,-87.8039 2.6695,-9.0941 6.6673,-22.6921 8.8834,-30.2184 6.969,-23.6657 18.6746,-79.4966 24.0278,-114.6011 9.9445,-65.2133 14.391,-164.11757 10.5096,-233.76365 -2.8329,-50.82567 -6.9157,-102.31516 -9.3227,-117.57662 l -0.649,-4.11572 -12.7554,-2.56711 c -7.0156,-1.41191 -17.6302,-4.03703 -23.5882,-5.83358 -5.9584,-1.7966 -19.8132,-5.56172 -30.7886,-8.36694 -10.9754,-2.80524 -22.7775,-5.91108 -26.227,-6.90195 -14.56,-4.18227 -19.2615,-5.56823 -27.3675,-8.06758 -16.5313,-5.09712 -34.7972,-10.8707 -36.4901,-11.53385 -0.9408,-0.3685 -12.7429,-4.45504 -26.227,-9.08109 -13.4842,-4.626 -26.3125,-9.15456 -28.5079,-10.06338 -2.195,-0.90886 -12.4576,-4.96846 -22.806,-9.02139 -21.2458,-8.32091 -53.6479,-22.03865 -68.9888,-29.20724 -5.6446,-2.63757 -15.3942,-7.17812 -21.666,-10.09011 -24.9596,-11.58871 -53.463,-26.56449 -95.6412,-50.24984 -6.8195,-3.82937 -12.5973,-6.96249 -12.8404,-6.96249 -0.2412,0 -2.8737,-1.70252 -5.8463,-3.7834 -2.9724,-2.08082 -8.683,-5.69832 -12.6893,-8.03882 l -7.285,-4.25549 -6.12625,4.06766 c -9.39497,6.23788 -20.4572,12.9242 -31.75849,19.19558 -26.31323,14.60198 -31.74556,17.56137 -45.61242,24.84848 -17.89121,9.40196 -60.50548,30.68307 -61.44115,30.68307 -0.36806,0 -3.88475,1.5643 -7.81454,3.47622 -3.9298,1.91198 -12.53309,5.79639 -19.11835,8.63209 -6.58531,2.83574 -13.51272,5.83815 -15.39422,6.67205 -17.05898,7.5607 -59.12771,24.33808 -72.97987,29.10496 -5.01738,1.72661 -15.7933,5.46596 -23.94653,8.30972 -8.15322,2.84371 -22.26456,7.4983 -31.35854,10.34347 -51.58412,16.13884 -49.40179,15.50627 -85.5233,24.79022 -9.72114,2.49855 -19.21566,5.03462 -21.09892,5.63577 -5.05329,1.61304 -30.38405,6.78423 -33.28361,6.7947 -1.37411,0.004 -2.87436,0.61735 -3.33384,1.36084 -3.45606,5.59196 -11.83688,132.33416 -11.84089,179.06721 -0.004,51.17537 5.154,129.7467 10.91363,166.23571 12.85568,81.4437 26.14816,135.3663 48.77067,197.8438 19.399,53.5748 51.99217,119.0636 80.58801,161.9241 2.92906,4.3899 7.04021,10.5478 9.13582,13.6837 4.39009,6.569 22.09761,29.9861 32.76665,43.3319 24.4431,30.5749 65.87342,72.1307 96.06568,96.3563 2.73576,2.195 6.80402,5.5588 9.04066,7.4749 12.59446,10.791 45.23612,34.564 62.94721,45.8446 27.03668,17.22 68.93881,39.9738 91.0702,49.4532 10.44106,4.4719 19.10067,8.2543 25.08682,10.9569 4.19817,1.8955 5.92597,1.724 12.69067,-1.2606 z M 152.76148,942.34175 c -1.53361,-0.77611 -3.80822,-3.15734 -5.05467,-5.29161 -2.12302,-3.6351 -2.17953,-4.57231 -0.89313,-14.82148 2.59556,-20.68045 7.05008,-45.25742 10.87777,-60.01629 7.542,-29.08039 16.63071,-58.25548 22.36658,-71.79763 0.53132,-1.25433 2.75438,-6.89888 4.9402,-12.54344 6.66067,-17.20029 8.0868,-20.5102 9.00747,-20.90568 0.48666,-0.20902 0.88484,-0.92924 0.88484,-1.60045 0,-2.27666 24.84203,-52.78966 31.55231,-64.15747 1.85104,-3.13583 3.72758,-6.47126 4.17008,-7.412 0.44249,-0.94076 2.31709,-4.01962 4.16575,-6.84188 1.84871,-2.82229 4.21257,-6.6708 5.25301,-8.55235 2.03557,-3.68102 18.65485,-29.22866 25.42113,-39.07809 11.39559,-16.58818 14.3515,-20.70984 18.9972,-26.48976 2.77255,-3.44942 8.72836,-10.88997 13.23515,-16.53452 23.33454,-29.22537 65.0725,-72.456 83.07601,-86.04699 5.33097,-4.02439 12.25834,-9.42466 15.39421,-12.00065 3.13585,-2.57594 7.75409,-6.04959 10.26281,-7.71914 2.50867,-1.66958 7.55048,-5.10124 11.20398,-7.62594 26.75572,-18.48903 63.12827,-32.92521 91.96418,-36.50039 12.49201,-1.54883 36.19374,-1.53409 47.55537,0.0301 16.20183,2.22979 42.00147,12.14065 61.37421,23.5768 7.57744,4.47309 22.48524,14.16448 23.37638,15.19673 0.31376,0.36332 4.16098,3.10339 8.54973,6.08925 9.03445,6.14655 19.82317,14.58779 19.90412,15.57324 0.0301,0.36116 -7.77146,3.10398 -17.3358,6.09471 -9.56435,2.99068 -21.23831,6.65757 -25.94208,8.14856 -4.70378,1.49103 -16.76258,5.0232 -26.79729,7.84934 -10.03473,2.82609 -23.63295,6.6967 -30.21825,8.60135 -12.83542,3.7124 -86.52017,21.81803 -96.9264,23.81654 -3.44946,0.66246 -12.42939,2.53423 -19.95544,4.1595 -7.52606,1.62529 -16.62571,3.58316 -20.22146,4.35083 -3.59573,0.76766 -6.98369,1.89185 -7.5288,2.49815 -3.45917,3.84761 -13.53211,75.12019 -17.31929,122.54545 -0.67612,8.4668 -1.69623,20.78215 -2.26685,27.36745 -0.57065,6.5853 -1.6538,21.45707 -2.40695,33.04842 -1.32316,20.36386 -1.47992,21.22978 -4.64462,25.65698 -6.65168,9.30511 -49.03577,52.75286 -57.68987,59.13767 -1.87336,1.38212 -4.87521,4.05994 -6.67077,5.95071 -4.3534,4.58438 -33.88129,28.90792 -46.02628,37.91415 -41.79347,30.99229 -84.42637,55.82139 -112.81625,65.70324 -12.30575,4.28332 -18.20388,4.96242 -22.81829,2.62714 z m 1671.63292,-2.93672 c -13.8509,-5.04996 -22.5641,-9.25636 -47.3375,-22.85342 -13.2626,-7.27936 -44.6365,-27.79495 -59.3882,-38.83451 -13.5764,-10.16022 -26.1684,-19.9498 -29.5413,-22.96642 -3.4117,-3.05145 -11.6404,-10.23918 -23.2081,-20.27196 -10.3202,-8.95119 -34.7777,-32.35037 -37.9567,-36.31464 -1.6545,-2.06359 -4.99,-5.39263 -7.412,-7.39784 -4.9318,-4.08352 -16.1218,-16.90434 -18.1264,-20.7678 -0.7184,-1.38505 -1.6558,-8.13395 -2.0833,-14.99749 -2.3553,-37.83881 -11.4495,-127.54473 -15.0215,-148.17626 -7.3384,-42.38447 -7.9874,-44.90055 -11.787,-45.69538 -1.6485,-0.34478 -7.1026,-1.59221 -12.1197,-2.77199 -5.0175,-1.17982 -15.28,-3.48657 -22.8063,-5.12617 -7.5259,-1.63962 -27.0253,-6.2621 -43.332,-10.27223 -16.3063,-4.01009 -33.0737,-8.06999 -37.2611,-9.02195 -9.0252,-2.05187 -72.0927,-19.89696 -87.6026,-24.78729 -21.4806,-6.77286 -34.8114,-11.28104 -36.4845,-12.33807 -1.4941,-0.94394 -1.4718,-1.25899 0.181,-2.54754 36.8793,-28.76639 60.7088,-43.2221 84.5362,-51.28248 16.2377,-5.49296 22.7537,-6.62758 42.4286,-7.38762 35.0609,-1.35437 61.3824,4.4821 95.7801,21.23809 14.5883,7.10629 19.3343,9.94095 36.4616,21.77795 16.4101,11.34121 50.5229,40.69549 64.36,55.38187 28.2256,29.95822 30.3167,32.33781 49.0882,55.86628 6.9445,8.70445 13.5148,16.85254 14.6005,18.10688 1.0861,1.25433 2.4876,3.13343 3.1152,4.17571 0.6274,1.04233 2.7211,4.12115 4.6532,6.84187 13.2511,18.65943 42.6701,64.5303 42.6701,66.53209 0,0.25386 1.6118,3.17782 3.5818,6.49804 4.5275,7.63102 27.4114,52.59192 29.4801,57.92096 0.8521,2.19508 2.9583,7.12458 4.681,10.95439 4.1999,9.33725 17.3923,42.92799 19.6575,50.05223 0.9969,3.13584 3.0833,9.55008 4.6362,14.25388 9.616,29.12754 21.2061,86.70226 21.2061,105.34337 0,13.74002 -8.9455,16.41548 -29.6483,8.86745 z M 862.05636,380.75812 c -7.70972,-46.80072 -7.8305,-47.65601 -9.21649,-65.28276 -2.07919,-26.44214 2.52004,-57.07702 12.75401,-84.95316 3.25862,-8.87598 6.65438,-15.0284 14.47592,-26.22716 5.73613,-8.21292 8.98005,-12.06547 23.09636,-27.42952 16.79177,-18.27607 43.93745,-39.88762 62.57438,-49.81751 4.07663,-2.17204 9.72118,-5.19914 12.54344,-6.72693 2.82224,-1.52775 9.0332,-3.97927 13.80203,-5.44785 l 8.67079,-2.67012 7.2936,2.50458 c 4.0116,1.37751 10.1161,3.96897 13.5656,5.75885 3.4492,1.78987 9.3502,4.81705 13.1135,6.72709 20.7636,10.53922 50.0303,34.98737 72.9797,60.96478 8.8223,9.98598 20.4429,26.80761 24.5399,35.52193 3.8573,8.20494 9.3958,26.60436 11.3279,37.63026 0.7689,4.39016 1.9136,10.29128 2.5437,13.11357 1.9533,8.74987 2.523,40.5634 0.9292,51.88414 -0.7943,5.64454 -2.0627,14.62447 -2.8186,19.95544 -1.527,10.77316 -9.8247,61.28336 -10.4575,63.65924 -0.4482,1.68261 0.1725,2.00046 -37.2503,-19.08666 -11.9214,-6.71774 -34.3373,-20.36087 -39.7341,-24.18356 -1.6648,-1.17926 -3.4922,-2.14406 -4.0612,-2.14406 -0.5688,0 -2.0289,-0.91779 -3.2448,-2.03951 -1.2157,-1.12172 -5.5459,-4.0403 -9.6225,-6.48575 -4.0768,-2.44543 -14.2963,-9.05371 -22.7098,-14.68502 -8.4137,-5.63136 -15.8784,-10.23884 -16.5878,-10.23884 -0.70964,0 -6.39758,3.55084 -12.63999,7.89076 -24.21033,16.83184 -55.72273,36.61247 -83.75955,52.57671 -12.41698,7.07029 -35.94946,19.73436 -36.67045,19.73436 -0.22669,0 -2.67322,-13.72649 -5.43695,-30.5033 z"
       id="path1" /></g></svg>
