<?xml version="1.0" encoding="UTF-8" standalone="no"?>
<!-- Created with Inkscape (http://www.inkscape.org/) -->

<svg
   version="1.1"
   id="svg1"
   width="2000"
   height="2000"
   viewBox="0 0 2000 2000"
   sodipodi:docname="logo_color.svg"
   inkscape:version="1.4.2 (ebf0e940, 2025-05-08)"
   inkscape:export-filename="logo_color.png"
   inkscape:export-xdpi="96"
   inkscape:export-ydpi="96"
   xmlns:inkscape="http://www.inkscape.org/namespaces/inkscape"
   xmlns:sodipodi="http://sodipodi.sourceforge.net/DTD/sodipodi-0.dtd"
   xmlns:xlink="http://www.w3.org/1999/xlink"
   xmlns="http://www.w3.org/2000/svg"
   xmlns:svg="http://www.w3.org/2000/svg">
  <defs
     id="defs1">
    <linearGradient
       id="linearGradient1"
       inkscape:collect="always">
      <stop
         style="stop-color:#60a5fa;stop-opacity:1;"
         offset="0"
         id="stop1" />
      <stop
         style="stop-color:#2dd4bf;stop-opacity:1;"
         offset="1"
         id="stop2" />
    </linearGradient>
    <linearGradient
       inkscape:collect="always"
       xlink:href="#linearGradient1"
       id="linearGradient2"
       x1="725.60034"
       y1="1299.7711"
       x2="1463.8198"
       y2="451.13412"
       gradientUnits="userSpaceOnUse"
       gradientTransform="matrix(2.1589012,0,0,2.1589012,-631.23104,-425.04767)" />
  </defs>
  <sodipodi:namedview
     id="namedview1"
     pagecolor="#505050"
     bordercolor="#eeeeee"
     borderopacity="1"
     inkscape:showpageshadow="0"
     inkscape:pageopacity="0"
     inkscape:pagecheckerboard="0"
     inkscape:deskcolor="#505050"
     inkscape:zoom="0.24915613"
     inkscape:cx="1017.4343"
     inkscape:cy="937.16336"
     inkscape:window-width="1472"
     inkscape:window-height="835"
     inkscape:window-x="0"
     inkscape:window-y="38"
     inkscape:window-maximized="1"
     inkscape:current-layer="g1" />
  <g
     inkscape:groupmode="layer"
     inkscape:label="Image"
     id="g1"
     transform="translate(-744.6421,-453.76175)">
    <path
       style="opacity:1;fill:url(#linearGradient2);fill-opacity:1;stroke-width:2.1589"
       d="m 1707.1671,2337.1593 -33.4631,-15.7835 -23.7478,-12.6043 -23.748,-12.6045 -32.3835,-19.5545 -32.3836,-19.5547 -23.7478,-16.062 -23.7479,-16.0622 -28.0658,-21.2773 -28.0657,-21.2775 -16.1918,-13.1898 -16.1917,-13.1898 -16.0385,-14.3304 -16.0385,-14.3304 -23.0661,-23.7479 -23.0659,-23.7479 -13.9306,-16.1917 -13.9305,-16.1918 -10.7996,-14.0328 -10.7999,-14.0329 -8.3447,-12.9534 -8.3445,-12.9534 -13.8045,-23.7479 -13.8047,-23.748 -6.4723,-15.1122 -6.4724,-15.1123 -7.1889,-21.589 -7.189,-21.589 -5.5233,-22.1398 -5.5235,-22.1397 -3.58,-30.7534 -3.5799,-30.7534 1.1879,-35.6216 1.1879,-35.6218 4.5818,-25.9069 4.5818,-25.9068 4.343,-17.0756 4.343,-17.0754 8.3175,-25.3298 8.3174,-25.3294 14.0671,-28.8455 14.067,-28.8454 14.7227,-21.9342 14.7228,-21.9344 13.6721,-17.3576 13.6722,-17.3575 22.6436,-21.8097 22.6433,-21.8096 21.9749,-17.3803 21.9746,-17.3805 18.3507,-10.881 18.3506,-10.8813 21.589,-11.3636 21.589,-11.3636 30.2247,-11.79 30.2246,-11.7899 18.3506,-5.8892 18.3507,-5.8892 49.9011,-12.7204 49.901,-12.7205 53.7262,-10.7843 53.7262,-10.7846 44.115,-11.9357 44.1152,-11.936 17.4135,-5.4904 17.4137,-5.4906 34.2449,-12.9443 34.2452,-12.9443 36.9986,-16.112 36.9988,-16.1121 28.0657,-15.3288 28.0657,-15.329 22.6685,-13.8645 22.6684,-13.8645 13.9288,-8.7924 13.9286,-8.7921 27.7596,-21.5458 27.7596,-21.5458 24.1417,-20.85149 24.1414,-20.85181 18.018,-18.32691 18.0177,-18.32713 17.2318,-21.23775 17.2317,-21.23777 16.4981,-24.02447 16.4983,-24.02468 18.5322,-36.79955 18.5323,-36.79955 9.5056,-24.28764 9.5059,-24.28764 h 1.3828 1.3829 l 2.7637,5.93697 2.7634,5.93698 5.2493,15.11232 5.2491,15.11231 7.4766,30.22461 7.4762,30.22462 5.3221,30.22461 5.322,30.22463 3.5179,33.46297 3.5179,33.46296 -1.2288,44.25748 -1.2289,44.25743 -3.3238,22.5081 -3.3238,22.508 -5.4853,26.0672 -5.4857,26.0673 -4.3825,15.1123 -4.3828,15.1124 -4.4186,12.9533 -4.4186,12.9534 -7.2939,17.8166 -7.2939,17.8165 -11.5318,23.2026 -11.532,23.2026 -12.294,19.8716 -12.2943,19.8718 -17.5294,24.3856 -17.5292,24.386 -16.2077,19.4301 -16.2078,19.4301 -18.5462,19.0969 -18.5465,19.0971 -20.5095,17.7258 -20.5096,17.7259 -24.8273,18.445 -24.8275,18.445 -25.9068,17.222 -25.9067,17.2219 -18.3507,10.8799 -18.3507,10.8797 -32.741,17.3514 -32.7409,17.351 -33.1056,15.1046 -33.1055,15.1042 -26.9862,11.2691 -26.9863,11.2688 -19.4301,7.5268 -19.4301,7.5266 -74.4821,25.4782 -74.4821,25.4784 -14.1154,5.4059 -14.1155,5.406 -11.7913,5.0417 -11.7915,5.0415 -23.2844,11.3159 -23.2843,11.3161 -18.8142,12.3303 -18.8142,12.3304 -20.6356,20.6174 -20.6359,20.6178 -11.3606,16.1918 -11.3606,16.1917 -6.5356,14.0329 -6.5356,14.0328 -6.2325,18.9854 -6.2328,18.9854 -2.3292,19.1565 -2.3293,19.1569 2.3137,24.8636 2.3139,24.8634 6.5445,20.0275 6.5447,20.0273 7.6924,15.1972 7.6924,15.1968 5.038,6.6916 5.038,6.6913 11.4221,12.4977 11.4221,12.4976 14.083,11.2096 14.0829,11.2095 22.6684,15.1404 22.6685,15.1404 26.9863,16.2328 26.9862,16.2325 13.4625,6.9763 13.4625,6.9762 21.08,-11.3005 21.0799,-11.3004 16.1917,-9.7222 16.1918,-9.7223 9.0247,-6.1663 9.0246,-6.1665 h 1.1883 1.1882 l 12.4556,-7.9324 12.4556,-7.9324 26.9862,-18.9831 26.9862,-18.9829 18.688,-14.6434 18.688,-14.6435 19.0928,-16.0803 19.0928,-16.0802 25.9068,-23.8239 25.9069,-23.8236 20.7196,-21.6247 20.7196,-21.6246 18.9586,-21.464 18.9586,-21.4639 15.3738,-19.3476 15.3737,-19.3476 20.8762,-30.4324 20.8762,-30.432 22.8189,-37.9483 22.8191,-37.9481 14.8744,-31.1365 14.8746,-31.1365 12.0829,-28.6483 12.083,-28.6484 11.0039,-31.8008 11.0041,-31.801 3.1024,-8.1953 3.1025,-8.1953 7.3811,-27.98 7.3808,-27.9801 29.305,-30.8507 29.3049,-30.8506 20.6525,-25.8069 20.6527,-25.8069 16.7427,-24.8273 16.7427,-24.8274 7.9262,-13.2215 7.9262,-13.2216 2.7393,-2.2735 2.7392,-2.2733 -1.7063,25.2101 -1.7062,25.2099 -6.6301,47.4958 -6.6305,47.4959 -5.1638,24.3949 -5.1641,24.3949 -10.8289,41.8264 -10.8288,41.8263 -6.2593,19.0553 -6.2593,19.0556 -11.8871,32.3835 -11.8872,32.3835 -7.5116,18.3507 -7.5119,18.3506 -7.5479,17.2712 -7.5478,17.2711 -9.8165,20.5095 -9.8169,20.5096 -13.3026,24.682 -13.303,24.6822 -17.5239,28.2086 -17.5241,28.2086 -18.4338,26.2033 -18.4339,26.2029 -8.9936,11.5802 -8.9933,11.5799 -9.3573,12.0696 -9.3571,12.0697 -14.7219,18.1548 -14.7219,18.1551 -37.0916,37.7221 -37.0919,37.7218 -17.3952,16.2507 -17.3949,16.2505 -11.5745,9.715 -11.5745,9.7151 -13.1289,10.458 -13.1292,10.4579 -5.098,4.3094 -5.0978,4.3094 -25.1268,18.8089 -25.1266,18.8092 -28.0847,19.6282 -28.0845,19.6278 -28.047,16.7176 -28.0466,16.7175 -34.5425,18.456 -34.5424,18.456 -25.7456,11.4711 -25.7455,11.4714 -2.3202,-4e-4 -2.3202,-5e-4 z m -572.5698,-557.9437 -12.0824,-21.0492 -9.9825,-20.0508 -9.9825,-20.0506 -16.339,-39.3189 -16.339,-39.3191 -15.0136,-45.3369 -15.0135,-45.337 -7.6777,-29.0559 -7.6782,-29.0559 -5.218,-23.8372 -5.2183,-23.8373 -6.3309,-30.2247 -6.3313,-30.2245 -5.28837,-33.463 -5.28785,-33.463 -2.36118,-18.3506 -2.36119,-18.3507 -4.75753,-43.1781 -4.75808,-43.178 -0.0989,-93.9121 -0.0989,-93.9122 2.72576,-20.50961 2.72545,-20.50959 3.36266,-30.22461 3.36255,-30.22462 1.61287,-14.74097 1.61331,-14.74099 3.09336,-1.95725 3.09325,-1.95748 3.84589,-0.0324 3.8459,-0.0324 59.8417,-14.89361 59.8417,-14.89383 26.9863,-8.75542 26.9862,-8.75564 34.5425,-10.65439 34.5423,-10.6544 36.7013,-12.88971 36.7014,-12.88951 16.1918,-6.50758 16.1917,-6.50758 26.9863,-11.27291 26.9862,-11.27271 15.1123,-7.00455 15.1124,-7.00477 14.0329,-6.23966 14.0327,-6.23987 49.6548,-25.1091 49.6547,-25.1091 11.4293,-6.7768 11.4292,-6.77679 h 0.7076 0.7078 l 20.2466,-11.54515 20.2466,-11.54516 12.9533,-7.82558 12.9535,-7.82559 17.8153,-11.3936 17.815,-11.3936 26.0117,-16.73148 26.0118,-16.73149 h 2.137 2.1374 l 5.8495,4.04383 5.8495,4.04407 25.9887,17.23472 25.9886,17.23494 25.825,15.71356 25.825,15.71356 35.6219,19.84527 35.6218,19.84506 24.8274,13.17685 24.8274,13.17663 42.0986,19.75222 42.0986,19.75223 32.3834,12.88928 32.3836,12.88929 11.874,4.94474 11.8739,4.94476 15.1123,5.62026 15.1123,5.62005 34.5425,11.73622 34.5423,11.73623 17.2712,5.53952 17.2713,5.53953 21.589,5.84284 21.589,5.84307 1.8607,1.64011 1.8608,1.64012 -7.9249,11.52443 -7.9251,11.52443 -7.6479,9.71506 -7.6481,9.71506 -17.5918,20.43163 -17.5919,20.43162 -7.6418,8.39294 -7.6421,8.39294 -42.0127,-12.97369 -42.0128,-12.97371 -15.1123,-5.82449 -15.1123,-5.82429 -25.9069,-9.34437 -25.9067,-9.34438 -37.7808,-15.35324 -37.7808,-15.35323 -25.9068,-12.23126 -25.9069,-12.23126 -45.3369,-22.89148 -45.3369,-22.89126 -18.3506,-10.50348 -18.3507,-10.50371 -19.4301,-11.5594 -19.4301,-11.55941 -22.6685,-14.9804 -22.6684,-14.98018 -2.79,-1.40415 -2.7898,-1.40415 -11.2431,7.09437 -11.2429,7.09436 -25.9068,16.10713 -25.9068,16.10734 -34.5424,19.25612 -34.5425,19.25631 -58.2903,28.84357 -58.2903,28.84378 -34.5424,14.39211 -34.5424,14.39209 -12.0065,5.18461 -12.0065,5.18459 -30.0921,11.23342 -30.0921,11.23363 -56.1314,18.89685 -56.1315,18.89708 -34.5424,9.78479 -34.5425,9.78479 -21.4773,5.47951 -21.4774,5.47971 -1.7271,1.72709 -1.7272,1.72709 -3.5225,53.86833 -3.5225,53.8682 2.3961,65.8465 2.3961,65.8464 3.3524,31.3041 3.3521,31.304 3.2783,22.6686 3.2783,22.6685 5.4503,26.9862 5.4504,26.9862 7.3385,32.495 7.3383,32.4951 5.303,18.2391 5.3029,18.2393 13.2509,39.9396 13.2507,39.9397 -0.9281,5.3972 -0.9284,5.3972 -8.8467,36.7014 -8.8465,36.7013 -4.7616,25.9068 -4.7618,25.9069 -0.1856,54.5066 -0.1857,54.5067 h -1.2057 -1.2055 z"
       id="path1" />
  </g>
</svg>
