<?xml version="1.0" encoding="UTF-8" standalone="no"?>
<!-- Created with Inkscape (http://www.inkscape.org/) -->

<svg
   version="1.1"
   id="svg1"
   width="711.7179"
   height="832.99994"
   viewBox="0 0 711.7179 832.99994"
   sodipodi:docname="logo_color.svg"
   inkscape:version="1.4.2 (ebf0e940, 2025-05-08)"
   inkscape:export-filename="logo_color.png"
   inkscape:export-xdpi="96"
   inkscape:export-ydpi="96"
   xmlns:inkscape="http://www.inkscape.org/namespaces/inkscape"
   xmlns:sodipodi="http://sodipodi.sourceforge.net/DTD/sodipodi-0.dtd"
   xmlns:xlink="http://www.w3.org/1999/xlink"
   xmlns="http://www.w3.org/2000/svg"
   xmlns:svg="http://www.w3.org/2000/svg">
  <defs
     id="defs1">
    <linearGradient
       id="linearGradient1"
       inkscape:collect="always">
      <stop
         style="stop-color:#60a5fa;stop-opacity:1;"
         offset="0"
         id="stop1" />
      <stop
         style="stop-color:#2dd4bf;stop-opacity:1;"
         offset="1"
         id="stop2" />
    </linearGradient>
    <linearGradient
       inkscape:collect="always"
       xlink:href="#linearGradient1"
       id="linearGradient2"
       x1="725.60034"
       y1="1299.7711"
       x2="1463.8198"
       y2="451.13412"
       gradientUnits="userSpaceOnUse" />
  </defs>
  <sodipodi:namedview
     id="namedview1"
     pagecolor="#505050"
     bordercolor="#eeeeee"
     borderopacity="1"
     inkscape:showpageshadow="0"
     inkscape:pageopacity="0"
     inkscape:pagecheckerboard="0"
     inkscape:deskcolor="#505050"
     inkscape:zoom="0.3169789"
     inkscape:cx="1126.2579"
     inkscape:cy="927.50653"
     inkscape:window-width="1472"
     inkscape:window-height="835"
     inkscape:window-x="0"
     inkscape:window-y="38"
     inkscape:window-maximized="1"
     inkscape:current-layer="g1">
    <inkscape:page
       x="0"
       y="0"
       width="711.7179"
       height="832.99994"
       id="page2"
       margin="0"
       bleed="0" />
  </sodipodi:namedview>
  <g
     inkscape:groupmode="layer"
     inkscape:label="Image"
     id="g1"
     transform="translate(-744.6421,-453.76175)">
    <path
       style="opacity:1;fill:url(#linearGradient2);fill-opacity:1"
       d="m 1083.1426,1279.4504 -15.5,-7.3109 -11,-5.8383 -11,-5.8384 -15,-9.0576 -15,-9.0577 -11,-7.4399 -11,-7.44 -13,-9.8556 -13,-9.8557 -7.5,-6.1095 -7.5,-6.1095 -7.429,-6.6378 -7.429,-6.6378 -10.6842,-11 -10.6841,-11 -6.4526,-7.5 -6.4526,-7.5 -5.0024,-6.5 -5.0025,-6.5 -3.8652,-6 -3.8652,-6 -6.3942,-11 -6.3943,-11 -2.998,-7 -2.998,-7 -3.3299,-10 -3.3299,-10 -2.5584,-10.2551 -2.5585,-10.2551 -1.6582,-14.2449 -1.6582,-14.2449 0.5502,-16.49996 0.5502,-16.5 2.1223,-12 2.1223,-12 2.0117,-7.9094 2.0116,-7.9093 3.8527,-11.7327 3.8526,-11.7326 6.5159,-13.36114 6.5158,-13.36116 6.8195,-10.15991 6.8196,-10.15992 6.3329,-8.04003 6.3329,-8.04003 10.4885,-10.10221 10.4884,-10.1022 10.1787,-8.05051 10.1786,-8.05052 8.5,-5.04017 8.5,-5.04017 10,-5.2636 10,-5.2636 14,-5.46109 14,-5.46108 8.5,-2.72784 8.5,-2.72784 23.1141,-5.89213 23.1141,-5.89214 24.8859,-4.99532 24.8859,-4.99533 20.434,-5.52867 20.4341,-5.52867 8.0659,-2.5432 8.066,-2.5432 15.8622,-5.99578 15.8623,-5.99578 17.1377,-7.46304 17.1378,-7.46304 13,-7.10035 13,-7.10035 10.5,-6.42203 10.5,-6.42203 6.4518,-4.07254 6.4517,-4.07254 12.8582,-9.97998 12.8582,-9.97998 11.1824,-9.65845 11.1823,-9.65845 8.3459,-8.48907 8.3458,-8.48908 7.9817,-9.83727 7.9817,-9.83728 7.6419,-11.12815 7.642,-11.12815 8.5841,-17.0455 8.5841,-17.0455 4.403,-11.25 4.4031,-11.25 h 0.6405 0.6406 l 1.2801,2.75 1.28,2.75 2.4315,7 2.4314,7 3.4631,14 3.463,14 2.4652,14 2.4651,14 1.6295,15.5 1.6295,15.5 -0.5692,20.5 -0.5692,20.5 -1.5396,10.4257 -1.5396,10.42569 -2.5408,12.07431 -2.5409,12.0743 -2.03,7 -2.0301,7 -2.0467,6 -2.0467,6 -3.3785,8.25258 -3.3785,8.25258 -5.3415,10.74742 -5.3416,10.74742 -5.6946,9.2045 -5.6947,9.20451 -8.1196,11.29549 -8.1195,11.2955 -7.5074,9 -7.5074,9 -8.5906,8.84567 -8.5907,8.84568 -9.5,8.21061 -9.5,8.21062 -11.5,8.54368 -11.5,8.54368 -12,7.97718 -12,7.97719 -8.5,5.03951 -8.5,5.0395 -15.1656,8.0371 -15.1655,8.037 -15.3345,6.9964 -15.3344,6.9963 -12.5,5.2198 -12.5,5.2197 -9,3.4864 -9,3.4863 -34.5,11.8015 -34.5,11.8015 -6.5382,2.504 -6.5383,2.5041 -5.4617,2.3353 -5.4618,2.33526 -10.7853,5.2415 -10.7853,5.2416 -8.7147,5.7114 -8.7147,5.7114 -9.5584,9.55 -9.5585,9.5501 -5.2622,7.5 -5.2622,7.5 -3.0273,6.5 -3.0273,6.5 -2.8869,8.794 -2.887,8.794 -1.0789,8.8733 -1.0789,8.8734 1.0717,11.5168 1.0718,11.5167 3.0314,9.2767 3.0315,9.2766 3.5631,7.0393 3.5631,7.0392 2.3336,3.0995 2.3336,3.0994 5.2907,5.7889 5.2907,5.7889 6.5232,5.1923 6.5232,5.1922 10.5,7.013 10.5,7.013 12.5,7.519 12.5,7.5189 6.2358,3.2314 6.2358,3.2314 9.7642,-5.2344 9.7642,-5.2343 7.5,-4.5033 7.5,-4.5034 4.1802,-2.8562 4.1802,-2.8563 h 0.5504 0.5504 l 5.7694,-3.6743 5.7694,-3.6743 12.5,-8.7929 12.5,-8.7929 8.6562,-6.7828 8.6563,-6.7828 8.8437,-7.4484 8.8438,-7.4483 12,-11.0352 12,-11.0351 9.5973,-10.0165 9.5973,-10.0165 8.7816,-9.9421 8.7816,-9.942 7.1211,-8.9618 7.1211,-8.9618 9.6698,-14.0962 9.6698,-14.0961 10.5697,-17.5776 10.5698,-17.5775 6.8898,-14.42246 6.8899,-14.4224 5.5968,-13.2698 5.5968,-13.2699 5.097,-14.7301 5.0971,-14.7302 1.437,-3.796 1.4371,-3.79604 3.4189,-12.96032 3.4188,-12.96031 13.574,-14.29002 13.574,-14.29002 9.5662,-11.95366 9.5663,-11.95365 7.7552,-11.5 7.7552,-11.5 3.6714,-6.12425 3.6714,-6.12424 1.2688,-1.05301 1.2688,-1.05302 -0.7903,11.67726 -0.7903,11.67726 -3.0711,22 -3.0712,22 -2.3919,11.29967 -2.392,11.29967 -5.0159,19.37387 -5.0159,19.37391 -2.8993,8.8264 -2.8993,8.8265 -5.5061,15 -5.506,15 -3.4795,8.5 -3.4795,8.5 -3.4962,8 -3.4961,7.99996 -4.547,9.5 -4.5471,9.5 -6.1618,11.4327 -6.1618,11.4327 -8.1171,13.0662 -8.1172,13.0662 -8.5385,12.1373 -8.5385,12.1372 -4.1658,5.3639 -4.1657,5.3638 -4.3343,5.5906 -4.3342,5.5907 -6.8191,8.4093 -6.8192,8.4094 -17.1808,17.4728 -17.1809,17.4727 -8.0574,7.5273 -8.0574,7.5272 -5.3613,4.5 -5.3612,4.5 -6.0813,4.8441 -6.0814,4.8441 -2.3614,1.9961 -2.3613,1.9961 -11.6387,8.7123 -11.6386,8.7124 -13.0088,9.0917 -13.0087,9.0916 -12.9913,7.7436 -12.9912,7.7435 -16,8.5488 -16,8.5488 -11.9253,5.3134 -11.9253,5.3135 -1.0747,-2e-4 -1.0747,-2e-4 z m -265.2135,-258.4387 -5.5965,-9.75 -4.6239,-9.2875 -4.6239,-9.28746 -7.5682,-18.2125 -7.5682,-18.2125 -6.9542,-21 -6.9543,-21 -3.5563,-13.45866 -3.5564,-13.45865 -2.4171,-11.04135 -2.417,-11.04136 -2.9326,-14 -2.9326,-14 -2.4495,-15.5 -2.4494,-15.5 -1.0937,-8.5 -1.0937,-8.5 -2.2037,-20 -2.2038,-20 -0.046,-43.5 -0.046,-43.5 1.2625,-9.5 1.2625,-9.5 1.5575,-14 1.5575,-14 0.7472,-6.82801 0.7472,-6.828 1.4328,-0.90668 1.4328,-0.90668 1.7814,-0.0153 1.7814,-0.0153 27.7186,-6.89872 27.7186,-6.89872 12.5,-4.05557 12.5,-4.05558 16,-4.93511 16,-4.93512 17,-5.97044 17,-5.97045 7.5,-3.0143 7.5,-3.01431 12.5,-5.22153 12.5,-5.22153 7,-3.24453 7,-3.24454 6.5,-2.89027 6.5,-2.89027 23,-11.6305 23,-11.63049 5.294,-3.13901 5.294,-3.13901 h 0.3278 0.3278 l 9.3782,-5.34767 9.3782,-5.34766 6,-3.62481 6,-3.62481 8.252,-5.27753 8.2519,-5.27752 12.0486,-7.75 12.0486,-7.75 h 0.9899 0.99 l 2.7095,1.87315 2.7095,1.87316 12.0379,7.98315 12.0379,7.98315 11.9621,7.27851 11.9621,7.27851 16.5,9.19226 16.5,9.19226 11.5,6.10345 11.5,6.10345 19.5,9.1492 19.5,9.14919 15,5.9703 15,5.97029 5.5,2.29042 5.5,2.29041 7,2.60326 7,2.60325 16,5.43619 16,5.4362 8,2.56586 8,2.56587 10,2.70648 10,2.70647 0.8619,0.7597 0.8619,0.7597 -3.6708,5.33808 -3.6709,5.33808 -3.5425,4.5 -3.5426,4.5 -8.1485,9.46389 -8.1485,9.46389 -3.5397,3.88763 -3.5398,3.88764 -19.4602,-6.00944 -19.4603,-6.00943 -7,-2.69782 -7,-2.69781 -12,-4.3283 -12,-4.32829 -17.5,-7.11163 -17.5,-7.11163 -12,-5.66551 -12,-5.66551 -21,-10.60321 -21,-10.60322 -8.5,-4.86525 -8.5,-4.86525 -9,-5.35431 -9,-5.35432 -10.5,-6.93886 -10.5,-6.93887 -1.2923,-0.6504 -1.2922,-0.6504 -5.2078,3.28613 -5.2077,3.28612 -12,7.46082 -12,7.46083 -16,8.91948 -16,8.91949 -27,13.36031 -27,13.36032 -16,6.6664 -16,6.6664 -5.5614,2.4015 -5.5614,2.40151 -13.9386,5.20336 -13.9386,5.20337 -26,8.75303 -26,8.75303 -16,4.53231 -16,4.53232 -9.9483,2.53815 -9.9483,2.53814 -0.8,0.8 -0.8,0.80001 -1.6316,24.95169 -1.6317,24.95169 1.1099,30.5 1.1099,30.5 1.5528,14.5 1.5527,14.5 1.5185,10.5 1.5185,10.5 2.5246,12.5 2.5246,12.5 3.3992,15.05167 3.3991,15.05166 2.4563,8.44834 2.4563,8.44833 6.1378,18.5 6.1377,18.49999 -0.4299,2.5 -0.43,2.5 -4.0978,17 -4.0977,17 -2.2056,12 -2.2056,12 -0.086,25.24746 -0.086,25.2474 h -0.5585 -0.5584 z"
       id="path1" />
  </g>
</svg>
